<svg xmlns="http://www.w3.org/2000/svg" viewBox="0 0 670.96 286.57"><defs><style>.cls-1{fill:#1d1d1b;}</style></defs><g id="Ebene_2" data-name="Ebene 2"><g id="Ebene_1-2" data-name="Ebene 1"><path class="cls-1" d="M60.33,197.61a10.72,10.72,0,0,1-7.71-3.81l-13.07-14a7.17,7.17,0,0,0-5.29-2.27l-23.94.62-.28-11,24-.62h.16a18.22,18.22,0,0,1,13.35,5.76l12,12.8a14.41,14.41,0,0,1,12.12-6l88.64.64a5.1,5.1,0,0,0,2-.35l18.43-7.25a8.6,8.6,0,0,1,9.08,1.8l4.83,4.64a2.94,2.94,0,0,0,2.66.75l3.78-.84a9,9,0,0,1,7.7,1.83,24.37,24.37,0,0,0,15.48,5.57l24-13,1-.14c4.18-.59,9.75.92,15.65,2.52a73.63,73.63,0,0,0,7.75,1.82c.49-.33,1.1-.77,1.64-1.15,9.21-6.49,14.36-9.43,18.74-8.63l-2,10.82a2.38,2.38,0,0,0,.8,0c-2.18.39-9,5.19-11.23,6.77-2.95,2.08-3.85,2.71-5.28,3-3.1.63-7.08-.37-13.32-2.06-3.29-.89-8.07-2.18-10.47-2.26l-24.28,13.14-1.26.06a35.53,35.53,0,0,1-23.42-7.43l-2.87.64a13.89,13.89,0,0,1-12.66-3.56L183.36,183l-17,6.69a15.87,15.87,0,0,1-6.36,1.11l-88.64-.65a3.41,3.41,0,0,0-3.13,1.77l-.88,1.49a8,8,0,0,1-6.05,4.18A8.22,8.22,0,0,1,60.33,197.61Z"/><path class="cls-1" d="M606.94,167.37a8.31,8.31,0,0,1-2.61-.4,8.45,8.45,0,0,1-5.56-6.77l-.06-.3a49.82,49.82,0,0,1-5.78-1.18c-2.66-.68-2.76-.71-18.16-22.68-10.7-15.26-28.6-40.8-33.27-44.31C525.89,80,504.91,55.62,496,44.36a42.22,42.22,0,0,1-8.84-21.45l-.51-4.49-5.37-7.16L477,15.12a81.33,81.33,0,0,0-10,10.8L453.4,43.48,437.57,71.91a85.06,85.06,0,0,0-3.33,8.47c-2.31,6.49-4.7,13.2-8.34,17.41-3.78,4.39-8.33,5.48-12,6.36a18.3,18.3,0,0,0-5.84,2.09l-31.75,30.92a5.52,5.52,0,0,0-1.22,1.69c-1.51,3.2-2.64,6.3-3.74,9.3-3.06,8.35-7.25,19.79-20.09,15.31l3.63-10.39c1.67.58,1.86.36,2.24-.08,1.28-1.5,2.55-5,3.89-8.63,1.13-3.07,2.4-6.54,4.11-10.18a16.84,16.84,0,0,1,3.5-4.91l32.41-31.54.35-.25a27,27,0,0,1,10-4c3.12-.75,4.82-1.22,6.22-2.84,2.3-2.66,4.52-8.91,6.31-13.93a91.75,91.75,0,0,1,3.92-9.83l.1-.19,16.29-29.25,14.08-18.22A93.39,93.39,0,0,1,469.63,6.94l4.73-4.25a10.46,10.46,0,0,1,15.37,1.49l7.51,10,.85,7.47a31.17,31.17,0,0,0,6.54,15.87c10,12.63,29.83,35.15,43.47,45.39,5.62,4.23,18.9,22.87,35.68,46.8,5.25,7.5,11.13,15.88,13.37,18.7a21.62,21.62,0,0,0,5.66.73,6.19,6.19,0,0,1,4.77,1.68,6,6,0,0,1,1.73,4.34,30.64,30.64,0,0,0,4.14-3.18l2-1.83,2.66.43c9,1.48,20.35,2.62,22.84,2,1.56-.45,4.81-1.38,7.33,1.11a5.72,5.72,0,0,1,.66.8c8.59-.07,21.7-.29,21.83-.29l.18,11c-.13,0-13.46.22-22.09.29-2.64,0-5.56-.22-7.65-1.88-6,.51-16.1-.79-22.31-1.74C615.65,164.5,611.18,167.37,606.94,167.37Z"/><path class="cls-1" d="M74.39,60.58A28.63,28.63,0,0,0,50.54,47.94C28.33,47.53,14.67,64,14.67,85.85s13.66,38.31,35.87,37.9a28.62,28.62,0,0,0,23.85-12.63l11,8.35A46.12,46.12,0,0,1,50.54,136C19.36,136.39,0,114.58,0,85.85S19.36,35.31,50.54,35.71A46.19,46.19,0,0,1,85.39,52.22Z"/><path class="cls-1" d="M148.77,136c-29.55,0-50.54-21.4-50.54-50.13s21-50.14,50.54-50.14c29.75,0,50.74,21.4,50.74,50.14S178.52,136,148.77,136Zm0-88c-22,0-35.87,16.51-35.87,37.91s13.86,37.9,35.87,37.9c22.21,0,36.07-16.5,36.07-37.9S171,47.94,148.77,47.94Z"/><path class="cls-1" d="M289.38,47.94l-55.84,73.37h57.88v12.23H214v-9.79l55.84-73.36h-53V38.16h72.55Z"/><path class="cls-1" d="M346.24,117l29.14-78.87h16.31L344,158.4c-5.71,14.67-13.45,24-30,24A43.32,43.32,0,0,1,301.61,181L303,168a21.35,21.35,0,0,0,10.19,2.24c9.37,0,14.26-6.32,18.34-17.12l6.93-18.34-39.13-96.6h16.91Z"/><path class="cls-1" d="M349.37,211.16a28.6,28.6,0,0,0-23.84-12.63c-22.22-.41-35.87,16.1-35.87,37.9s13.65,38.32,35.87,37.91a28.61,28.61,0,0,0,23.84-12.64l11,8.36a46.2,46.2,0,0,1-34.85,16.51c-31.18.4-50.54-21.4-50.54-50.14s19.36-50.54,50.54-50.13a46.14,46.14,0,0,1,34.85,16.51Z"/><path class="cls-1" d="M439.24,225.63v-2.44c0-16.51-7.95-24.66-24.45-24.66a42.41,42.41,0,0,0-29.15,11.21l-8.15-9.58c8.77-9,22.42-13.86,40.35-13.86,18.75,0,34.85,10.6,34.85,33.83v42.59a156.18,156.18,0,0,0,1.63,21.4h-13a96,96,0,0,1-1.22-15.49h-.41c-7.74,12.64-18.34,17.94-33.63,17.94-16.91,0-32.81-9.38-32.81-27.92,0-31,36.48-33,59.31-33Zm-6.93,11c-13.65,0-44.42,1-44.42,20.17,0,12.64,11.61,17.53,22.41,17.53,19.57,0,28.94-13.86,28.94-30.77v-6.93Z"/><path class="cls-1" d="M525.85,284.12H510.77l-38.72-95.38h16.1L518.52,269h.41l30.36-80.3h15.29Z"/><path class="cls-1" d="M591.47,240.1c1.64,19.16,16.1,34.24,35.06,34.24a36.14,36.14,0,0,0,30.57-16.51l10.39,8.56c-11.21,14.27-25.27,20.18-41,20.18-28.33,0-49.32-21.4-49.32-50.14s21-50.13,48.09-50.13C654.24,186.5,671,207.9,671,234v6.11Zm64.81-11c0-18.14-11.61-30.57-31-30.57-17.52,0-33.42,14.87-33.42,30.57Z"/></g></g></svg>